<svg id="header-logo" width="295" height="102" xmlns="http://www.w3.org/2000/svg">
    <path d="M271.954 89.922a3.028 3.028 0 0 1 2.465 1.21v-1.019h1.32v7.306c.06.95-.076 1.903-.4 2.798a2.945 2.945 0 0 1-1.273 1.301 4.41 4.41 0 0 1-2.144.478 4.04 4.04 0 0 1-2.442-.681 2.3 2.3 0 0 1-.899-2.05l1.392.207c.024.367.2.707.485.94.43.286.94.426 1.455.397a2.557 2.557 0 0 0 1.536-.398c.367-.274.626-.668.732-1.114.096-.608.13-1.224.104-1.839a2.945 2.945 0 0 1-2.34 1.107 3.188 3.188 0 0 1-2.696-1.257 4.843 4.843 0 0 1-.954-3.016 5.62 5.62 0 0 1 .437-2.233c.258-.64.7-1.19 1.269-1.58a3.426 3.426 0 0 1 1.953-.557zM71.202 87.59a4.633 4.633 0 0 1 1.663 2.507l-1.52.358a3.608 3.608 0 0 0-1.177-1.854 3.136 3.136 0 0 0-1.94-.58 3.767 3.767 0 0 0-2.247.644 3.401 3.401 0 0 0-1.27 1.731 6.971 6.971 0 0 0-.365 2.24 7.13 7.13 0 0 0 .433 2.599c.248.69.724 1.275 1.348 1.659a3.782 3.782 0 0 0 1.981.55 3.314 3.314 0 0 0 2.196-.75 3.825 3.825 0 0 0 1.217-2.22l1.543.39a5.196 5.196 0 0 1-1.747 2.901 4.809 4.809 0 0 1-3.081.999 5.533 5.533 0 0 1-3.067-.768 4.785 4.785 0 0 1-1.798-2.225 7.929 7.929 0 0 1-.616-3.127c-.026-1.1.213-2.19.696-3.18a4.768 4.768 0 0 1 1.98-2.06 5.783 5.783 0 0 1 2.828-.705 4.784 4.784 0 0 1 2.943.891zM33.57 89.922a4.89 4.89 0 0 1 1.746.287c.437.145.823.415 1.11.776.264.392.432.84.492 1.309l-1.4.19a1.533 1.533 0 0 0-.552-1.018 2.024 2.024 0 0 0-1.293-.366 2.338 2.338 0 0 0-1.407.327.95.95 0 0 0-.422.764.79.79 0 0 0 .175.5c.145.175.335.307.549.383.143.053.564.175 1.264.366.72.177 1.428.399 2.12.665.38.155.707.416.943.752a2.1 2.1 0 0 1 .342 1.225 2.404 2.404 0 0 1-.418 1.35 2.697 2.697 0 0 1-1.205.978 4.378 4.378 0 0 1-1.782.346c-.89.06-1.773-.18-2.509-.684a3.181 3.181 0 0 1-1.102-2.03l1.416-.222c.046.504.284.97.664 1.305.439.326.978.486 1.524.453a2.24 2.24 0 0 0 1.463-.401c.296-.224.472-.572.477-.943a.87.87 0 0 0-.422-.764 6.202 6.202 0 0 0-1.463-.486 13.403 13.403 0 0 1-2.183-.688 2.087 2.087 0 0 1-1.238-1.938 2.176 2.176 0 0 1 .26-1.047c.169-.318.41-.591.703-.8.278-.19.586-.331.911-.417a4.315 4.315 0 0 1 1.237-.172zm-16.284.255c.381.124.724.345.994.64.225.285.378.62.446.975.06.438.084.88.072 1.322v1.91c-.022.843.008 1.687.09 2.526.063.357.185.7.363 1.015h-1.496a3.036 3.036 0 0 1-.286-1.043c-.452.404-.97.727-1.531.955a4.423 4.423 0 0 1-1.579.28 3.07 3.07 0 0 1-2.14-.682 2.245 2.245 0 0 1-.748-1.738 2.308 2.308 0 0 1 .283-1.134c.177-.33.43-.613.74-.824.315-.212.663-.37 1.03-.47.419-.098.844-.17 1.272-.214.866-.08 1.721-.245 2.554-.494.005-.196.007-.32.007-.373.048-.45-.1-.9-.405-1.234a2.396 2.396 0 0 0-1.63-.485 2.526 2.526 0 0 0-1.492.353 2.165 2.165 0 0 0-.712 1.253l-1.4-.19c.095-.527.31-1.024.628-1.453a2.755 2.755 0 0 1 1.265-.851 5.627 5.627 0 0 1 1.917-.299 5.074 5.074 0 0 1 1.758.255zm184.83 0c.381.124.724.345.995.64.224.285.377.62.445.975.06.438.084.88.072 1.322v1.91c-.022.843.008 1.687.09 2.526.063.357.186.7.363 1.015h-1.495a3.036 3.036 0 0 1-.287-1.043c-.452.404-.97.727-1.53.955a4.427 4.427 0 0 1-1.58.28 3.067 3.067 0 0 1-2.14-.682 2.245 2.245 0 0 1-.747-1.738 2.308 2.308 0 0 1 .282-1.134c.177-.33.43-.613.74-.824.315-.212.663-.37 1.03-.47.42-.098.844-.17 1.273-.214.865-.08 1.72-.245 2.552-.494.006-.196.009-.32.009-.373.047-.45-.1-.9-.405-1.234a2.398 2.398 0 0 0-1.631-.485 2.526 2.526 0 0 0-1.492.353 2.166 2.166 0 0 0-.712 1.253l-1.4-.19c.095-.527.31-1.024.629-1.453a2.751 2.751 0 0 1 1.265-.851 5.624 5.624 0 0 1 1.916-.299 5.07 5.07 0 0 1 1.758.255zm-32.224 0c.38.124.724.345.994.64.225.285.378.62.446.975.06.438.084.88.072 1.322v1.91c-.022.843.008 1.687.09 2.526.063.357.185.7.363 1.015h-1.496a3.036 3.036 0 0 1-.286-1.043c-.452.404-.97.727-1.531.955a4.427 4.427 0 0 1-1.58.28 3.067 3.067 0 0 1-2.139-.682 2.245 2.245 0 0 1-.748-1.738 2.308 2.308 0 0 1 .283-1.134c.177-.33.43-.613.74-.824.315-.212.663-.37 1.03-.47.419-.098.844-.17 1.272-.214.865-.08 1.72-.245 2.553-.494.005-.196.008-.32.008-.373.048-.45-.1-.9-.405-1.234a2.398 2.398 0 0 0-1.63-.485 2.526 2.526 0 0 0-1.492.353 2.166 2.166 0 0 0-.713 1.253l-1.4-.19c.096-.527.31-1.024.63-1.453a2.751 2.751 0 0 1 1.264-.851 5.624 5.624 0 0 1 1.917-.299 5.07 5.07 0 0 1 1.758.255zm81.466 0c.381.124.724.345.995.64.224.285.377.62.445.975.06.438.084.88.072 1.322v1.91c-.022.843.009 1.687.091 2.526.062.357.185.7.362 1.015h-1.495a3.036 3.036 0 0 1-.287-1.043c-.452.404-.97.727-1.53.955a4.427 4.427 0 0 1-1.58.28 3.067 3.067 0 0 1-2.14-.682 2.245 2.245 0 0 1-.747-1.738 2.308 2.308 0 0 1 .282-1.134c.177-.33.43-.613.74-.824.315-.212.663-.37 1.03-.47.42-.098.844-.17 1.273-.214.865-.08 1.72-.245 2.553-.494.005-.196.008-.32.008-.373.047-.45-.1-.9-.405-1.234a2.398 2.398 0 0 0-1.631-.485 2.526 2.526 0 0 0-1.492.353 2.166 2.166 0 0 0-.712 1.253l-1.4-.19c.095-.527.31-1.024.629-1.453a2.751 2.751 0 0 1 1.265-.851 5.624 5.624 0 0 1 1.917-.299 5.07 5.07 0 0 1 1.757.255zm14.344.888a4.345 4.345 0 0 1 1.106 3.155 5.596 5.596 0 0 1-.49 2.566 3.464 3.464 0 0 1-1.424 1.453 4.15 4.15 0 0 1-2.04.517 3.793 3.793 0 0 1-2.867-1.138 4.543 4.543 0 0 1-1.094-3.28 4.358 4.358 0 0 1 1.304-3.477 3.93 3.93 0 0 1 2.657-.939 3.788 3.788 0 0 1 2.848 1.143zm-86.058-.446a3.195 3.195 0 0 1 1.122 1.977l-1.393.215a2.312 2.312 0 0 0-.704-1.281 1.819 1.819 0 0 0-1.22-.43 2.22 2.22 0 0 0-1.758.776 3.684 3.684 0 0 0-.677 2.455c-.075.876.156 1.75.653 2.476a2.12 2.12 0 0 0 1.702.771 2.006 2.006 0 0 0 1.408-.517c.417-.43.67-.993.716-1.591l1.407.182a3.65 3.65 0 0 1-1.18 2.28 3.436 3.436 0 0 1-2.335.824 3.628 3.628 0 0 1-2.788-1.134 4.605 4.605 0 0 1-1.054-3.251 5.899 5.899 0 0 1 .453-2.395 3.17 3.17 0 0 1 1.38-1.54 4.099 4.099 0 0 1 2.017-.514 3.505 3.505 0 0 1 2.251.697zm-49.534.446a4.345 4.345 0 0 1 1.105 3.155 5.597 5.597 0 0 1-.489 2.566 3.468 3.468 0 0 1-1.424 1.453 4.152 4.152 0 0 1-2.04.517 3.793 3.793 0 0 1-2.867-1.138 4.543 4.543 0 0 1-1.094-3.28 4.358 4.358 0 0 1 1.304-3.477 3.93 3.93 0 0 1 2.657-.939 3.788 3.788 0 0 1 2.848 1.143zm92.324-4.167v11.667h-1.33V97.5c-.498.819-1.404 1.3-2.361 1.257a3.31 3.31 0 0 1-1.858-.557 3.662 3.662 0 0 1-1.313-1.556 5.383 5.383 0 0 1-.465-2.296 5.995 5.995 0 0 1 .422-2.296 3.315 3.315 0 0 1 1.265-1.58 3.374 3.374 0 0 1 1.885-.549 2.819 2.819 0 0 1 2.33 1.162v-4.186h1.425zm57.23 3.215v4.688a8.359 8.359 0 0 0 .087 1.512c.076.355.28.671.572.887.316.223.696.336 1.082.322.426.001.843-.113 1.21-.33.36-.201.64-.518.799-.9.18-.53.26-1.09.234-1.65v-4.529h1.432v8.452h-1.28v-1.241a3.093 3.093 0 0 1-2.681 1.432 3.417 3.417 0 0 1-1.396-.286 2.3 2.3 0 0 1-.962-.72 2.698 2.698 0 0 1-.442-1.063c-.07-.442-.1-.89-.087-1.337v-5.237h1.432zm-201.055-.19a3.61 3.61 0 0 1 2.768 1.154 4.587 4.587 0 0 1 1.075 3.247c0 .085-.003.212-.009.382h-6.3a3.25 3.25 0 0 0 .788 2.133 2.346 2.346 0 0 0 1.766.74c.481.013.954-.133 1.344-.415.418-.343.725-.803.883-1.32l1.48.182a3.61 3.61 0 0 1-1.297 2.014 4.39 4.39 0 0 1-5.357-.426 4.461 4.461 0 0 1-1.086-3.203 4.672 4.672 0 0 1 1.098-3.31 3.715 3.715 0 0 1 2.847-1.179zm-35.844 0a3.61 3.61 0 0 1 2.768 1.154 4.587 4.587 0 0 1 1.075 3.247c0 .085-.003.212-.009.382h-6.3a3.25 3.25 0 0 0 .788 2.133 2.346 2.346 0 0 0 1.766.74c.481.013.954-.133 1.344-.415.418-.343.725-.803.883-1.32l1.48.182a3.61 3.61 0 0 1-1.297 2.014 4.39 4.39 0 0 1-5.357-.426 4.461 4.461 0 0 1-1.086-3.203 4.672 4.672 0 0 1 1.098-3.31 3.715 3.715 0 0 1 2.847-1.179zm248.385 0a3.613 3.613 0 0 1 2.769 1.154 4.59 4.59 0 0 1 1.073 3.247c0 .085-.003.212-.008.382h-6.3a3.25 3.25 0 0 0 .788 2.133 2.346 2.346 0 0 0 1.766.74c.481.013.954-.133 1.344-.415.418-.344.725-.803.883-1.32l1.48.182a3.61 3.61 0 0 1-1.298 2.014 4.39 4.39 0 0 1-5.356-.426 4.46 4.46 0 0 1-1.086-3.203 4.671 4.671 0 0 1 1.097-3.31 3.715 3.715 0 0 1 2.848-1.179zm-105.197 0a3.613 3.613 0 0 1 2.768 1.154 4.59 4.59 0 0 1 1.073 3.247c0 .085-.003.212-.008.382h-6.3a3.25 3.25 0 0 0 .788 2.133 2.346 2.346 0 0 0 1.766.74c.481.013.954-.133 1.344-.415.418-.344.725-.803.883-1.32l1.48.182a3.61 3.61 0 0 1-1.298 2.014 4.39 4.39 0 0 1-5.356-.426 4.46 4.46 0 0 1-1.086-3.203 4.671 4.671 0 0 1 1.097-3.31 3.715 3.715 0 0 1 2.849-1.179zm-27.342 0a3.614 3.614 0 0 1 2.77 1.154 4.59 4.59 0 0 1 1.073 3.247c0 .085-.003.212-.009.382h-6.3a3.25 3.25 0 0 0 .788 2.133 2.346 2.346 0 0 0 1.766.74c.482.013.954-.133 1.345-.415.418-.344.725-.803.883-1.32l1.48.182a3.61 3.61 0 0 1-1.298 2.014 4.39 4.39 0 0 1-5.357-.426 4.461 4.461 0 0 1-1.086-3.203 4.672 4.672 0 0 1 1.098-3.31 3.715 3.715 0 0 1 2.847-1.179zm-56.28 0a3.61 3.61 0 0 1 2.768 1.154 4.587 4.587 0 0 1 1.074 3.247c0 .085-.003.212-.008.382h-6.3a3.25 3.25 0 0 0 .788 2.133 2.346 2.346 0 0 0 1.766.74c.48.013.953-.133 1.344-.415.418-.343.725-.803.883-1.32l1.48.182a3.61 3.61 0 0 1-1.298 2.014 4.39 4.39 0 0 1-5.356-.426 4.461 4.461 0 0 1-1.087-3.203 4.672 4.672 0 0 1 1.098-3.31 3.715 3.715 0 0 1 2.848-1.179zm-6.666-2.762v2.952h1.44v1.115h-1.44v4.942c-.017.265.009.53.075.787.05.117.137.215.247.279.15.078.32.113.49.103.21-.004.42-.022.627-.055l.207 1.265c-.355.08-.718.122-1.082.127a2.457 2.457 0 0 1-1.209-.246 1.383 1.383 0 0 1-.604-.649 5.137 5.137 0 0 1-.175-1.691v-4.862h-1.05v-1.115h1.05v-2.092l1.424-.86zm140.538-.095c.63.135 1.217.421 1.71.835a4.75 4.75 0 0 1 1.38 1.993c.319.89.474 1.83.458 2.774a8.183 8.183 0 0 1-.31 2.356c-.17.606-.44 1.18-.796 1.699a4.248 4.248 0 0 1-1.062 1.058 4.338 4.338 0 0 1-1.392.586 7.94 7.94 0 0 1-1.873.198h-4.208V86.898h4.017a9.685 9.685 0 0 1 2.076.168zM25.351 89.922c.482-.005.96.089 1.405.275.38.147.71.397.958.72.22.318.372.679.445 1.059.066.46.093.927.08 1.393v5.196h-1.432v-5.141a3.857 3.857 0 0 0-.167-1.309 1.38 1.38 0 0 0-.593-.693 1.89 1.89 0 0 0-.998-.258 2.318 2.318 0 0 0-1.579.581c-.52.61-.76 1.409-.664 2.204v4.616h-1.432v-8.452h1.288v1.202a3.038 3.038 0 0 1 2.689-1.393zm63.185 0c.482-.005.96.089 1.405.275.38.147.71.397.958.72.22.318.373.679.445 1.059.066.46.093.927.08 1.393v5.196h-1.432v-5.141a3.857 3.857 0 0 0-.167-1.309 1.38 1.38 0 0 0-.593-.693 1.89 1.89 0 0 0-.998-.258 2.318 2.318 0 0 0-1.579.581c-.52.61-.76 1.409-.664 2.204v4.616h-1.432v-8.452h1.289v1.202a3.038 3.038 0 0 1 2.688-1.393zm22.847 0a2.79 2.79 0 0 1 1.47.462l-.492 1.33a2.041 2.041 0 0 0-1.05-.311 1.361 1.361 0 0 0-.844.282 1.528 1.528 0 0 0-.532.784 5.582 5.582 0 0 0-.239 1.671v4.425h-1.432v-8.452h1.29v1.282c.213-.456.524-.861.91-1.186.269-.188.59-.288.919-.287zm-109.8-3.024 6.124 9.16v-9.16h1.48v11.667H7.604L1.48 89.397v9.168H0V86.898h1.583zm51.11 3.024c.48-.005.959.089 1.403.275.38.147.711.397.958.72.221.318.373.679.446 1.059.066.46.092.927.08 1.393v5.196h-1.433v-5.141a3.86 3.86 0 0 0-.166-1.309 1.377 1.377 0 0 0-.593-.693 1.885 1.885 0 0 0-.998-.258 2.322 2.322 0 0 0-1.58.581c-.519.61-.76 1.41-.663 2.204v4.616h-1.432v-8.452h1.289v1.202a3.038 3.038 0 0 1 2.688-1.393zm204.154-3.024v11.667h-1.432V86.898h1.432zm-46.665 3.024c.482-.005.96.089 1.404.275.38.147.711.397.958.72.221.318.373.679.446 1.059.066.46.092.927.08 1.393v5.196h-1.433v-5.141a3.837 3.837 0 0 0-.167-1.309 1.372 1.372 0 0 0-.592-.693 1.887 1.887 0 0 0-.999-.258 2.32 2.32 0 0 0-1.579.581c-.519.61-.76 1.41-.663 2.204v4.616h-1.432v-8.452h1.288v1.202a3.039 3.039 0 0 1 2.69-1.393zm-73.829 0a2.79 2.79 0 0 1 1.471.462l-.493 1.33a2.041 2.041 0 0 0-1.05-.311 1.361 1.361 0 0 0-.843.282 1.528 1.528 0 0 0-.532.784 5.582 5.582 0 0 0-.239 1.671v4.425h-1.432v-8.452h1.289v1.282c.214-.456.525-.861.91-1.186.27-.188.59-.288.92-.287zm107.137.191v8.452h-1.432v-8.452h1.432zm-93.216-3.103c.514.073 1.006.259 1.44.545.403.288.725.676.934 1.126a3.8 3.8 0 0 1-.592 4.11c-.631.688-1.771 1.031-3.42 1.03h-2.991v4.744h-1.543V86.898h4.398a10.62 10.62 0 0 1 1.774.112zm-28.645-.311a7.01 7.01 0 0 1 1.336.144l-.215 1.249a4.802 4.802 0 0 0-.843-.08 1.258 1.258 0 0 0-.923.279 1.513 1.513 0 0 0-.27 1.042v.78h1.646v1.115h-1.647v7.337h-1.423v-7.337h-1.265v-1.115h1.265v-.9a3.942 3.942 0 0 1 .15-1.264c.14-.372.395-.69.729-.904.442-.255.95-.375 1.46-.346zm48.325 7.625c-.756.269-1.54.45-2.338.54a5.401 5.401 0 0 0-1.249.287c-.23.095-.427.257-.564.466a1.266 1.266 0 0 0 .234 1.635c.362.279.813.415 1.269.382.513.01 1.02-.115 1.47-.362.413-.222.744-.57.948-.991.177-.456.256-.944.23-1.433v-.524zm81.467 0c-.756.269-1.54.45-2.338.54a5.401 5.401 0 0 0-1.25.287c-.23.095-.427.257-.564.466a1.266 1.266 0 0 0 .234 1.635c.362.279.814.415 1.27.382.513.01 1.02-.115 1.47-.362.413-.222.744-.57.947-.991.178-.456.256-.944.23-1.433v-.524zm-49.242 0c-.757.269-1.541.45-2.338.54a5.401 5.401 0 0 0-1.25.287c-.23.095-.427.257-.564.466a1.266 1.266 0 0 0 .234 1.635c.362.279.814.415 1.27.382.513.01 1.02-.115 1.47-.362.412-.222.744-.57.947-.991.177-.456.256-.944.23-1.433v-.524zm-184.83 0a10.5 10.5 0 0 1-2.339.54 5.412 5.412 0 0 0-1.249.287c-.23.095-.427.257-.564.466a1.266 1.266 0 0 0 .234 1.635c.362.279.813.415 1.269.382a2.957 2.957 0 0 0 1.472-.362c.411-.223.742-.57.946-.991.177-.456.256-.944.23-1.433v-.524zm245.499-3.215a2.36 2.36 0 0 0-1.777.803 3.584 3.584 0 0 0-.708 2.427c-.066.87.186 1.733.708 2.431a2.356 2.356 0 0 0 3.555-.004 3.685 3.685 0 0 0 .709-2.474 3.493 3.493 0 0 0-.712-2.376 2.36 2.36 0 0 0-1.775-.807zm-135.592 0a2.36 2.36 0 0 0-1.777.803 3.584 3.584 0 0 0-.708 2.427c-.066.87.186 1.733.708 2.431a2.356 2.356 0 0 0 3.556-.004 3.685 3.685 0 0 0 .708-2.474 3.497 3.497 0 0 0-.712-2.376 2.36 2.36 0 0 0-1.775-.807zm91.557 0a1.984 1.984 0 0 0-1.595.779 3.851 3.851 0 0 0-.64 2.46 3.673 3.673 0 0 0 .684 2.427c.386.501.982.798 1.615.803a2.025 2.025 0 0 0 1.594-.768c.49-.679.722-1.51.657-2.344a3.977 3.977 0 0 0-.668-2.546 2.055 2.055 0 0 0-1.647-.811zm53.244 0a2.067 2.067 0 0 0-1.622.775 3.448 3.448 0 0 0-.668 2.304 3.67 3.67 0 0 0 .66 2.428 2.096 2.096 0 0 0 1.654.764 2.117 2.117 0 0 0 1.654-.76 3.55 3.55 0 0 0 .669-2.384 3.469 3.469 0 0 0-.688-2.34 2.128 2.128 0 0 0-1.659-.787zm-37.955-2.834h-2.45v8.914h2.49c.61.02 1.22-.053 1.81-.216.39-.116.75-.323 1.046-.604.396-.419.69-.925.855-1.477a7.23 7.23 0 0 0 .306-2.248 5.429 5.429 0 0 0-.6-2.813 3.023 3.023 0 0 0-1.46-1.318 6.038 6.038 0 0 0-1.997-.238zM78.624 91.1a2.276 2.276 0 0 0-1.658.66 2.617 2.617 0 0 0-.744 1.768h4.717a2.865 2.865 0 0 0-.54-1.6 2.195 2.195 0 0 0-1.775-.828zm107.343 0a2.277 2.277 0 0 0-1.659.66 2.616 2.616 0 0 0-.743 1.768h4.717a2.865 2.865 0 0 0-.541-1.6 2.195 2.195 0 0 0-1.774-.828zm105.198 0a2.277 2.277 0 0 0-1.659.66 2.616 2.616 0 0 0-.743 1.768h4.717a2.865 2.865 0 0 0-.541-1.6 2.195 2.195 0 0 0-1.774-.828zm-248.385 0a2.276 2.276 0 0 0-1.658.66 2.617 2.617 0 0 0-.744 1.768h4.717a2.865 2.865 0 0 0-.54-1.6 2.195 2.195 0 0 0-1.775-.828zm115.846 0a2.276 2.276 0 0 0-1.658.66 2.617 2.617 0 0 0-.744 1.768h4.717a2.865 2.865 0 0 0-.54-1.6 2.195 2.195 0 0 0-1.775-.828zm-56.28 0a2.276 2.276 0 0 0-1.659.66 2.617 2.617 0 0 0-.744 1.768h4.718a2.865 2.865 0 0 0-.541-1.6 2.195 2.195 0 0 0-1.774-.828zm46.281-2.825h-2.982v4.17h3.014a3.193 3.193 0 0 0 2.124-.557c.433-.403.663-.978.628-1.568a2.108 2.108 0 0 0-.37-1.253 1.729 1.729 0 0 0-.974-.689 6.602 6.602 0 0 0-1.44-.103zm94.863-1.377v1.647h-1.432v-1.647h1.432zm31.074-26.55a9.942 9.942 0 0 1 4.11.82 7.112 7.112 0 0 1 3.02 2.586 8.604 8.604 0 0 1 1.392 3.615c.14 1.151.19 2.311.15 3.47H270.51c.071 1.754.68 2.983 1.828 3.689.76.455 1.633.684 2.519.658a3.55 3.55 0 0 0 3.477-2.006h4.665a5.709 5.709 0 0 1-1.694 3.16c-1.565 1.7-3.757 2.55-6.574 2.55a9.522 9.522 0 0 1-6.156-2.15c-1.777-1.435-2.666-3.768-2.666-7 0-3.028.803-5.35 2.407-6.967a8.423 8.423 0 0 1 6.249-2.425zm-46.624 0a9.942 9.942 0 0 1 4.11.82 7.112 7.112 0 0 1 3.02 2.586 8.604 8.604 0 0 1 1.392 3.615c.14 1.151.19 2.311.15 3.47h-12.727c.071 1.754.68 2.983 1.828 3.689.76.455 1.634.684 2.519.658a3.55 3.55 0 0 0 3.478-2.006h4.664a5.709 5.709 0 0 1-1.693 3.16c-1.566 1.7-3.758 2.55-6.575 2.55a9.522 9.522 0 0 1-6.156-2.15c-1.777-1.435-2.666-3.768-2.666-7 0-3.028.803-5.35 2.408-6.967a8.423 8.423 0 0 1 6.248-2.425zm-145.26 0a9.945 9.945 0 0 1 4.11.82 7.106 7.106 0 0 1 3.02 2.586 8.595 8.595 0 0 1 1.392 3.615c.14 1.151.19 2.311.15 3.47H78.625c.07 1.754.68 2.983 1.827 3.689a4.64 4.64 0 0 0 2.52.658 3.546 3.546 0 0 0 3.477-2.006h4.665a5.706 5.706 0 0 1-1.694 3.16c-1.565 1.7-3.756 2.55-6.574 2.55a9.522 9.522 0 0 1-6.156-2.15c-1.777-1.435-2.666-3.768-2.666-7 0-3.028.802-5.35 2.407-6.967a8.425 8.425 0 0 1 6.25-2.425zm73.705 0a9.945 9.945 0 0 1 4.11.82 7.106 7.106 0 0 1 3.02 2.586 8.595 8.595 0 0 1 1.392 3.615c.14 1.151.19 2.311.15 3.47h-12.726c.07 1.754.679 2.983 1.826 3.689a4.64 4.64 0 0 0 2.52.658 3.546 3.546 0 0 0 3.477-2.006h4.665a5.706 5.706 0 0 1-1.694 3.16c-1.565 1.7-3.756 2.55-6.574 2.55a9.522 9.522 0 0 1-6.155-2.15c-1.778-1.435-2.667-3.768-2.667-7 0-3.028.802-5.35 2.407-6.967a8.425 8.425 0 0 1 6.25-2.425zm36.427-.03a9.85 9.85 0 0 1 5.342 1.306c1.376.871 2.166 2.377 2.37 4.515h-4.569a2.703 2.703 0 0 0-.499-1.395 3.138 3.138 0 0 0-2.572-.93c-.74-.063-1.483.1-2.13.465-.38.234-.618.644-.634 1.09-.026.481.24.93.675 1.139a29.14 29.14 0 0 0 4.77 1.267 8.762 8.762 0 0 1 4.093 1.94 4.409 4.409 0 0 1 1.347 3.29 5.309 5.309 0 0 1-1.936 4.242c-1.29 1.096-3.286 1.644-5.984 1.644-2.752 0-4.784-.58-6.096-1.74a5.656 5.656 0 0 1-1.968-4.435h4.633c.026.628.245 1.233.628 1.732.57.61 1.622.914 3.158.914a4.824 4.824 0 0 0 2.15-.4 1.343 1.343 0 0 0 .156-2.375 26.304 26.304 0 0 0-4.78-1.38 9.926 9.926 0 0 1-4.197-1.843 4 4 0 0 1-1.219-3.144 5.449 5.449 0 0 1 1.904-4.163 7.655 7.655 0 0 1 5.358-1.74zm-128.312 0a9.85 9.85 0 0 1 5.342 1.306c1.376.871 2.166 2.377 2.37 4.515h-4.57a2.71 2.71 0 0 0-.497-1.395 3.14 3.14 0 0 0-2.573-.93c-.74-.063-1.483.1-2.13.465-.38.234-.619.643-.635 1.09-.026.481.24.93.675 1.139 1.552.556 3.148.98 4.77 1.267a8.758 8.758 0 0 1 4.094 1.94 4.409 4.409 0 0 1 1.347 3.29 5.309 5.309 0 0 1-1.936 4.242c-1.29 1.096-3.285 1.644-5.983 1.644-2.753 0-4.785-.58-6.097-1.74a5.655 5.655 0 0 1-1.968-4.435h4.633c.026.628.245 1.233.629 1.732.568.61 1.62.914 3.157.914a4.83 4.83 0 0 0 2.15-.4 1.344 1.344 0 0 0 .155-2.375 26.281 26.281 0 0 0-4.78-1.38 9.936 9.936 0 0 1-4.197-1.843 4 4 0 0 1-1.218-3.144 5.45 5.45 0 0 1 1.904-4.163 7.653 7.653 0 0 1 5.358-1.74zm145.26 0a9.85 9.85 0 0 1 5.342 1.306c1.376.871 2.166 2.377 2.37 4.515h-4.569a2.703 2.703 0 0 0-.499-1.395 3.138 3.138 0 0 0-2.572-.93c-.74-.063-1.483.1-2.13.465-.38.234-.619.644-.635 1.09-.025.481.24.93.675 1.139a29.14 29.14 0 0 0 4.77 1.267 8.762 8.762 0 0 1 4.094 1.94 4.409 4.409 0 0 1 1.347 3.29 5.309 5.309 0 0 1-1.936 4.242c-1.291 1.096-3.286 1.644-5.984 1.644-2.752 0-4.784-.58-6.096-1.74a5.656 5.656 0 0 1-1.969-4.435h4.634c.025.628.245 1.233.628 1.732.57.61 1.622.914 3.158.914a4.824 4.824 0 0 0 2.15-.4 1.343 1.343 0 0 0 .155-2.375 26.304 26.304 0 0 0-4.78-1.38 9.926 9.926 0 0 1-4.197-1.843 4 4 0 0 1-1.218-3.144 5.449 5.449 0 0 1 1.903-4.163 7.655 7.655 0 0 1 5.359-1.74zM34.14 61.535c1.492.76 2.237 2.192 2.238 4.299v8.02c0 .555.01 1.229.032 2.02-.013.423.081.842.273 1.219.173.234.405.416.673.53v.673h-4.97a5.047 5.047 0 0 1-.289-.994c-.054-.31-.096-.663-.128-1.059a9.399 9.399 0 0 1-2.193 1.748 6.617 6.617 0 0 1-3.355.85 5.788 5.788 0 0 1-3.942-1.354 4.82 4.82 0 0 1-1.556-3.842 4.978 4.978 0 0 1 2.503-4.667 11.19 11.19 0 0 1 4.038-1.124l1.566-.192a7.206 7.206 0 0 0 1.826-.401c.577-.17.976-.697.985-1.299a1.537 1.537 0 0 0-.756-1.484 4.776 4.776 0 0 0-2.218-.41 2.911 2.911 0 0 0-2.324.803 3.312 3.312 0 0 0-.65 1.604h-4.409a6.688 6.688 0 0 1 1.288-3.77c1.213-1.54 3.296-2.309 6.247-2.309a11.133 11.133 0 0 1 5.121 1.14zm149.131-6.85v23.611h-4.44v-2.422a6.446 6.446 0 0 1-2.229 2.262c-.958.5-2.03.743-3.11.706a6.493 6.493 0 0 1-5.154-2.478 9.518 9.518 0 0 1-2.092-6.36c0-2.984.687-5.331 2.06-7.042a6.702 6.702 0 0 1 5.507-2.566 5.633 5.633 0 0 1 2.822.698 5.55 5.55 0 0 1 2.003 1.933v-8.341h4.633zm78.902 1.412v4.876h2.837v3.257h-2.837v9.239c-.063.464.033.936.272 1.339a2.993 2.993 0 0 0 1.667.265 12.5 12.5 0 0 0 .898-.033v3.417l-2.165.08c-2.158.075-3.633-.3-4.425-1.123a3.342 3.342 0 0 1-.77-2.422V64.231h-2.436v-3.257h2.437v-4.876h4.522zm-155.075 5.718c1.144.947 1.716 2.516 1.716 4.708v11.773h-4.682V67.663a4.888 4.888 0 0 0-.366-2.118 2.57 2.57 0 0 0-2.546-1.347 3.156 3.156 0 0 0-3.167 1.973 6.825 6.825 0 0 0-.445 2.663v9.463h-4.57v-17.45h4.425v2.55a7.763 7.763 0 0 1 1.66-1.941 5.752 5.752 0 0 1 3.561-1.059 6.699 6.699 0 0 1 4.414 1.42zm187.283-1.419c.086 0 .158.003.217.008.058.005.19.014.393.024v4.684a12.488 12.488 0 0 0-1.315-.08c-1.838 0-3.072.598-3.703 1.796a6.995 6.995 0 0 0-.53 3.112v8.356h-4.6V60.814h4.36v3.048a9.674 9.674 0 0 1 1.843-2.39 5.018 5.018 0 0 1 3.335-1.075zm-158.261-5.71v4.155h-11.945v5.437h10.47v4.106h-10.47v9.912h-4.905v-23.61h16.85zm-82.972 7.13c1.144.946 1.716 2.515 1.716 4.707v11.773h-4.681V67.663a4.888 4.888 0 0 0-.366-2.118 2.571 2.571 0 0 0-2.546-1.347 3.157 3.157 0 0 0-3.168 1.973 6.825 6.825 0 0 0-.445 2.663v9.463h-4.57v-17.45h4.426v2.55a7.747 7.747 0 0 1 1.66-1.941 5.75 5.75 0 0 1 3.56-1.059 6.697 6.697 0 0 1 4.414 1.42zm199.21 0c1.144.946 1.716 2.515 1.716 4.707v11.773h-4.68V67.663a4.888 4.888 0 0 0-.367-2.118 2.572 2.572 0 0 0-2.546-1.347 3.156 3.156 0 0 0-3.167 1.973 6.825 6.825 0 0 0-.446 2.663v9.463h-4.569v-17.45h4.425v2.55a7.747 7.747 0 0 1 1.66-1.941 5.75 5.75 0 0 1 3.56-1.059 6.697 6.697 0 0 1 4.414 1.42zm-105.88-1.42c.085 0 .158.003.216.008.059.005.19.014.393.024v4.684a12.39 12.39 0 0 0-1.315-.08c-1.838 0-3.073.598-3.703 1.796a6.995 6.995 0 0 0-.53 3.112v8.356h-4.6V60.814h4.36v3.048a9.655 9.655 0 0 1 1.844-2.39 5.016 5.016 0 0 1 3.335-1.075zm-141.3-5.742 9.379 16.486V54.655h4.602v23.642H14.22l-9.62-16.775v16.775H0V54.655h5.177zm26.647 15.141c-.28.176-.577.324-.887.442-.399.138-.81.243-1.227.312l-1.04.192a6.852 6.852 0 0 0-2.1.626 2.088 2.088 0 0 0-1.079 1.94c-.059.637.185 1.264.66 1.693a2.5 2.5 0 0 0 1.603.522c.987.003 1.95-.3 2.759-.867.841-.577 1.278-1.63 1.31-3.16v-1.7zm140.072-3.89a8.173 8.173 0 0 0 .016 7.636 3.226 3.226 0 0 0 2.893 1.451 3.372 3.372 0 0 0 2.95-1.443 6.374 6.374 0 0 0 1.01-3.737c0-2.14-.539-3.669-1.618-4.588a3.488 3.488 0 0 0-2.309-.834 3.208 3.208 0 0 0-2.942 1.516zm-91.942-.789a4.75 4.75 0 0 0-1.218 2.707h7.872a3.816 3.816 0 0 0-1.218-2.763 4.002 4.002 0 0 0-2.71-.943 3.622 3.622 0 0 0-2.726 1zm73.705 0a4.75 4.75 0 0 0-1.218 2.707h7.872a3.816 3.816 0 0 0-1.217-2.763 4.002 4.002 0 0 0-2.71-.943 3.622 3.622 0 0 0-2.727 1zm71.555 0a4.755 4.755 0 0 0-1.218 2.707h7.872a3.815 3.815 0 0 0-1.217-2.763 4.005 4.005 0 0 0-2.71-.943 3.622 3.622 0 0 0-2.727 1zm46.624 0a4.755 4.755 0 0 0-1.218 2.707h7.872a3.815 3.815 0 0 0-1.217-2.763 4.005 4.005 0 0 0-2.71-.943 3.622 3.622 0 0 0-2.727 1zM107.988 0l.078 5.635h27.747L135.76 0h25.036l.05 5.635L194.02 19.62l-3.627-.105v5.218h33.252v-3.444l40.262-19.412h31.085v41.537h-6.048l-.107-35.378-23.47.104-35.674 17.533-.052 5.192-46.157.026.105-8.35-29.001-12.523-.05-4.2-11.736.025.104 6.262h-40.681l-.104-6.47H89.212l.078 5.636-31.502 14.636v11.61H12.283l.026-17.062-5.633-4.384-.417.626-.105 26.822L0 43.623V1.877L18.985 17.95V30.89l.626.417h31.501l-.104-5.661h-3.39L83.032 7.722 82.953 0h25.035z" fill="#02532E" fill-rule="nonzero"/>
</svg>
